<svg id="Layer_1" data-name="Layer 1" xmlns="http://www.w3.org/2000/svg" viewBox="0 0 199.49 199.49"><defs><style>.cls-1{fill:#fff;}</style></defs><circle class="cls-1" cx="99.74" cy="99.74" r="99.74"/><path d="M644.52-129.44l13.94,14.31c-18.73,21.32-56.06,14.57-68.85-12.77a42.94,42.94,0,0,1,17.7-55.79c20-11.29,44.74-5.47,57.18,13.79,13.25,20.53,21.68,43.19,29.14,67.16-6.28,0-12.1.21-17.89-.17-1.19-.08-2.61-2.23-3.28-3.71-6.2-13.63-12.17-27.37-18.4-41A73.93,73.93,0,0,0,648-158.18c-7.44-11-21.57-13.87-32.17-6.6a22.55,22.55,0,0,0-5.71,31.44c7.38,10.83,21.09,13.15,32.24,5.45C643.1-128.41,643.84-128.95,644.52-129.44Z" transform="translate(-560.03 245.74)"/><path d="M696.45-108.19c-3.51-9.72-6.56-17.84-9.29-26.06a7.67,7.67,0,0,1,.64-5.16c7.43-15.52,14.93-31,22.68-46.38a7.48,7.48,0,0,1,5.25-3.4c5.7-.45,11.45-.17,18.33-.17Z" transform="translate(-560.03 245.74)"/></svg>