<?xml version="1.0" encoding="utf-8"?>
<!-- Generator: Adobe Illustrator 21.0.0, SVG Export Plug-In . SVG Version: 6.00 Build 0)  -->
<svg version="1.1" id="Réteg_1" xmlns="http://www.w3.org/2000/svg" xmlns:xlink="http://www.w3.org/1999/xlink" x="0px" y="0px"
	 viewBox="0 0 255.1 255.1" style="enable-background:new 0 0 255.1 255.1;" xml:space="preserve">
<style type="text/css">
	.st0{fill:#02001E;}
	.st1{opacity:0.6;}
	.st2{fill:#57DDA6;}
	.st3{opacity:0.3;}
</style>
<title>MAZE_LOGO_ROUNDED-1</title>
<g id="Layer_2">
	<rect class="st0" width="255.1" height="255.1"/>
</g>
<g id="Layer_1">
	<g class="st1">
		<path class="st2" d="M83.2,121.6c-1.5,0-2.8-1.2-2.8-2.8V99c0-9.6,7.8-17.4,17.5-17.5h59.4c9.6,0,17.4,7.8,17.5,17.5v19.9
			c0,1.5-1.2,2.8-2.8,2.8s-2.8-1.2-2.8-2.8V99c0-6.6-5.4-12-12-12H97.9c-6.6,0-12,5.4-12,12v19.9C85.9,120.4,84.7,121.6,83.2,121.6z
			"/>
	</g>
	<g class="st1">
		<path class="st2" d="M157.3,175.9H97.9c-9.6,0-17.4-7.8-17.5-17.5v-19.9c0-1.5,1.2-2.8,2.8-2.8s2.8,1.2,2.8,2.8v19.9
			c0,6.6,5.4,12,12,12h59.4c6.6,0,12-5.4,12-12v-19.9c0-1.5,1.2-2.8,2.8-2.8s2.8,1.2,2.8,2.8v19.9
			C174.8,168.1,167,175.9,157.3,175.9C157.3,175.9,157.3,175.9,157.3,175.9z"/>
	</g>
	<path class="st2" d="M157.2,161c-1.5,0-2.8-1.2-2.8-2.8l0,0v-56.5h-53.7v56.5c0,1.5-1.2,2.8-2.8,2.8s-2.8-1.2-2.8-2.8V99.1
		c0-1.5,1.2-2.8,2.8-2.8l0,0h59.2c1.5,0,2.8,1.2,2.8,2.8l0,0v59.2C159.9,159.8,158.7,161,157.2,161L157.2,161z"/>
	<path class="st2" d="M127.6,146.2c-1.5,0-2.8-1.2-2.8-2.8l0,0V99.1c0-1.5,1.2-2.8,2.8-2.8s2.8,1.2,2.8,2.8v44.4
		C130.3,145,129.1,146.2,127.6,146.2L127.6,146.2z"/>
	<path class="st2" d="M142.4,161h-29.6c-1.5,0-2.8-1.2-2.8-2.8l0,0v-44.4c0-1.5,1.2-2.8,2.8-2.8s2.8,1.2,2.8,2.8v41.7h24.1v-41.7
		c0-1.5,1.2-2.8,2.8-2.8s2.8,1.2,2.8,2.8l0,0v44.4C145.1,159.8,143.9,161,142.4,161L142.4,161z"/>
	<g class="st3">
		<path class="st2" d="M117.8,190.7H98c-17.9,0-32.4-14.5-32.4-32.4V99.1c0-17.9,14.5-32.3,32.4-32.4h19.8c1.5,0,2.8,1.2,2.8,2.8
			s-1.2,2.8-2.8,2.8H98c-14.8,0-26.8,12-26.9,26.9v59.2c0,14.8,12,26.9,26.9,26.9h19.8c1.5,0,2.8,1.2,2.8,2.8
			S119.3,190.7,117.8,190.7L117.8,190.7z"/>
	</g>
	<g class="st3">
		<path class="st2" d="M157.2,190.7h-19.8c-1.5,0-2.8-1.2-2.8-2.8s1.2-2.8,2.8-2.8h19.8c14.8,0,26.9-12,26.9-26.9V99.1
			c0-14.8-12-26.9-26.9-26.9h-19.8c-1.5,0-2.8-1.2-2.8-2.8s1.2-2.8,2.8-2.8h19.8c17.9,0,32.3,14.5,32.3,32.4v59.2
			C189.5,176.1,175,190.6,157.2,190.7z"/>
	</g>
</g>
</svg>
