<?xml version="1.0" encoding="utf-8"?>
<!-- Generator: Adobe Illustrator 21.0.0, SVG Export Plug-In . SVG Version: 6.00 Build 0)  -->
<svg version="1.1" id="Réteg_1" xmlns="http://www.w3.org/2000/svg" xmlns:xlink="http://www.w3.org/1999/xlink" x="0px" y="0px"
	 viewBox="0 0 257 250" style="enable-background:new 0 0 257 250;" xml:space="preserve">
<style type="text/css">
	.st0{opacity:0.6;}
	.st1{fill:#57DDA6;}
	.st2{opacity:0.3;}
</style>
<title>MAZE_LOGO_ROUNDED-17</title>
<g id="Layer_1">
	<g class="st0">
		<path class="st1" d="M77.7,116.1c-1.9,0-3.5-1.6-3.5-3.5l0,0V87.5c0-12.2,9.8-22,22-22h75c12.2,0,22,9.8,22,22v25.1
			c0,1.9-1.6,3.5-3.5,3.5s-3.5-1.6-3.5-3.5l0,0V87.5c0-8.3-6.8-15.1-15.1-15.1h-75c-8.3,0-15,6.8-15,15.1v25.1
			C81.2,114.5,79.6,116.1,77.7,116.1L77.7,116.1z"/>
	</g>
	<g class="st0">
		<path class="st1" d="M171.2,184.5h-75c-12.2,0-22-9.8-22-22v-25.1c0-1.9,1.6-3.5,3.5-3.5s3.5,1.6,3.5,3.5v25.1
			c0,8.3,6.8,15.1,15.1,15.1h75c8.3,0,15.1-6.8,15.1-15.1v-25.1c0-1.9,1.6-3.5,3.5-3.5s3.5,1.6,3.5,3.5v25.1
			C193.3,174.7,183.4,184.5,171.2,184.5C171.2,184.5,171.2,184.5,171.2,184.5z"/>
	</g>
	<path class="st1" d="M171.1,165.8c-1.9,0-3.5-1.5-3.5-3.5V91.1H99.8v71.3c0,1.9-1.6,3.5-3.5,3.5s-3.5-1.6-3.5-3.5l0,0V87.6
		c0-1.9,1.6-3.5,3.5-3.5h74.7c1.9,0,3.5,1.5,3.5,3.4c0,0,0,0,0,0v74.7C174.6,164.3,173,165.8,171.1,165.8
		C171.1,165.8,171.1,165.8,171.1,165.8z"/>
	<path class="st1" d="M133.7,147.2c-1.9,0-3.5-1.6-3.5-3.5l0,0v-56c0-1.9,1.6-3.5,3.5-3.5s3.5,1.6,3.5,3.5v56
		C137.2,145.6,135.6,147.1,133.7,147.2z"/>
	<path class="st1" d="M152.4,165.8h-37.3c-1.9,0-3.5-1.5-3.5-3.4c0,0,0,0,0,0v-56c0-1.9,1.6-3.5,3.5-3.5s3.5,1.6,3.5,3.5v52.6h30.4
		v-52.6c-0.1-1.9,1.4-3.5,3.3-3.7c1.9-0.1,3.5,1.4,3.7,3.3c0,0.1,0,0.2,0,0.4v56C155.9,164.2,154.4,165.8,152.4,165.8
		C152.4,165.8,152.4,165.8,152.4,165.8z"/>
	<g class="st2">
		<path class="st1" d="M121.3,203.2h-25c-22.5,0-40.8-18.3-40.8-40.8V87.7c0-22.6,18.3-40.8,40.9-40.8h25c1.9,0,3.5,1.6,3.5,3.5
			c0,1.9-1.6,3.5-3.5,3.5h-25c-18.7,0-33.9,15.2-33.9,33.9v74.7c0,18.7,15.2,33.9,33.9,33.9h25c1.9,0,3.5,1.6,3.5,3.5
			S123.3,203.2,121.3,203.2L121.3,203.2L121.3,203.2z"/>
	</g>
	<g class="st2">
		<path class="st1" d="M171.1,203.2h-25c-1.9,0-3.5-1.6-3.5-3.5s1.6-3.5,3.5-3.5h25c18.7,0,33.9-15.2,33.9-33.9V87.7
			c0-18.7-15.2-33.9-33.9-33.9h-25c-1.9,0-3.5-1.6-3.5-3.5c0-1.9,1.6-3.5,3.5-3.5h25c22.5,0,40.8,18.3,40.8,40.8v74.7
			C211.9,184.9,193.6,203.2,171.1,203.2z"/>
	</g>
</g>
</svg>
